<svg data-v-423bf9ae="" xmlns="http://www.w3.org/2000/svg" viewBox="0 0 560.0187651549286 60" class="font"><!----><!----><!----><g data-v-423bf9ae="" id="42a2919b-0950-41ea-b43d-4d0600ad81bf" fill="black" transform="matrix(5.639097562403148,0,0,5.639097562403148,-2.4248183417759037,-21.879699664304873)"><path d="M7.98 14.35L4.98 4.58L3.43 4.58L0.43 14.35L1.65 14.35L2.48 11.56L5.91 11.56L6.73 14.35ZM5.63 10.54L2.76 10.54L4.13 5.82L4.26 5.82ZM12.57 14.52C14.74 14.52 15.99 13.43 15.99 11.62C15.99 10.35 15.36 9.28 13.44 8.95L12.39 8.76C11.00 8.53 10.56 7.97 10.56 7.10C10.56 5.99 11.30 5.42 12.61 5.42C13.83 5.42 14.53 5.91 15.08 6.62L15.90 5.91C15.25 4.97 14.18 4.41 12.63 4.41C10.64 4.41 9.37 5.33 9.37 7.13C9.37 8.36 9.97 9.46 11.89 9.79L12.98 9.97C14.31 10.19 14.80 10.70 14.80 11.65C14.80 12.82 14.03 13.51 12.61 13.51C11.44 13.51 10.64 13.05 9.88 12.10L9.03 12.80C9.76 13.80 10.82 14.52 12.57 14.52ZM21.32 14.52C23.11 14.52 23.86 13.44 24.33 12.38L23.32 11.91C22.97 12.78 22.51 13.50 21.32 13.50C19.77 13.50 19.03 12.22 19.03 10.26L19.03 8.67C19.03 6.71 19.77 5.43 21.32 5.43C22.51 5.43 22.97 6.15 23.32 7.01L24.33 6.55C23.86 5.49 23.11 4.41 21.32 4.41C18.94 4.41 17.78 6.22 17.78 9.46C17.78 12.71 18.94 14.52 21.32 14.52ZM32.42 14.35L32.42 13.41L29.99 13.41L29.99 5.52L32.42 5.52L32.42 4.58L26.38 4.58L26.38 5.52L28.81 5.52L28.81 13.41L26.38 13.41L26.38 14.35ZM40.82 14.35L40.82 13.41L38.39 13.41L38.39 5.52L40.82 5.52L40.82 4.58L34.78 4.58L34.78 5.52L37.21 5.52L37.21 13.41L34.78 13.41L34.78 14.35ZM51.73 14.35L54.46 14.35C56.84 14.35 58.02 12.67 58.02 9.46C58.02 6.26 56.84 4.58 54.46 4.58L51.73 4.58ZM52.91 13.33L52.91 5.60L54.40 5.60C55.96 5.60 56.77 6.75 56.77 8.71L56.77 10.22C56.77 12.18 55.96 13.33 54.40 13.33ZM63.13 14.52C64.55 14.52 65.59 13.82 66.02 12.85L65.20 12.29C64.82 13.08 64.09 13.55 63.13 13.55C61.77 13.55 60.91 12.63 60.91 11.35L60.91 11.02L66.26 11.02L66.26 10.49C66.26 8.44 65.00 6.96 63.06 6.96C61.10 6.96 59.74 8.44 59.74 10.75C59.74 13.03 61.05 14.52 63.13 14.52ZM63.06 7.88C64.25 7.88 65.06 8.75 65.06 10.02L65.06 10.18L60.91 10.18L60.91 10.08C60.91 8.82 61.82 7.88 63.06 7.88ZM69.69 14.35L69.69 9.34C69.69 8.39 70.59 7.95 71.48 7.95C72.59 7.95 73.19 8.60 73.19 9.91L73.19 14.35L74.31 14.35L74.31 9.72C74.31 7.97 73.32 6.96 71.81 6.96C70.62 6.96 70.06 7.59 69.75 8.30L69.69 8.30L69.69 7.13L68.57 7.13L68.57 14.35ZM78.09 14.35L78.09 9.34C78.09 8.39 78.99 7.95 79.88 7.95C80.99 7.95 81.59 8.60 81.59 9.91L81.59 14.35L82.71 14.35L82.71 9.72C82.71 7.97 81.72 6.96 80.21 6.96C79.02 6.96 78.46 7.59 78.15 8.30L78.09 8.30L78.09 7.13L76.97 7.13L76.97 14.35ZM88.65 5.53C89.29 5.53 89.53 5.22 89.53 4.82L89.53 4.59C89.53 4.19 89.29 3.88 88.65 3.88C88.00 3.88 87.77 4.19 87.77 4.59L87.77 4.82C87.77 5.22 88.00 5.53 88.65 5.53ZM85.48 14.35L91.64 14.35L91.64 13.40L89.21 13.40L89.21 7.13L85.48 7.13L85.48 8.08L88.09 8.08L88.09 13.40L85.48 13.40ZM96.68 14.52C98.53 14.52 99.74 13.69 99.74 12.26C99.74 10.70 98.29 10.42 97.26 10.26L96.12 10.09C95.48 10.00 94.85 9.80 94.85 9.04C94.85 8.30 95.48 7.90 96.61 7.90C97.89 7.90 98.53 8.40 98.87 8.81L99.60 8.12C98.91 7.39 97.96 6.96 96.66 6.96C94.98 6.96 93.74 7.67 93.74 9.11C93.74 10.68 95.20 10.96 96.22 11.12L97.36 11.28C98.01 11.38 98.63 11.58 98.63 12.33C98.63 13.19 97.83 13.58 96.71 13.58C95.56 13.58 94.78 13.17 94.09 12.45L93.34 13.10C94.09 13.96 95.17 14.52 96.68 14.52Z"></path></g><!----><!----></svg>