<svg id="Layer_1" data-name="Layer 1" xmlns="http://www.w3.org/2000/svg" viewBox="0 0 525.39 432.34"><defs><style>.cls-1,.cls-2{fill:#f15959;}.cls-1,.cls-10,.cls-11,.cls-12,.cls-13,.cls-15,.cls-18,.cls-19,.cls-23,.cls-3,.cls-6,.cls-7,.cls-8,.cls-9{stroke:#231f20;}.cls-1,.cls-10,.cls-11,.cls-12,.cls-13,.cls-14,.cls-15,.cls-16,.cls-18,.cls-19,.cls-20,.cls-22,.cls-23,.cls-3,.cls-6,.cls-7,.cls-8,.cls-9{stroke-miterlimit:10;}.cls-1,.cls-23,.cls-3,.cls-7{stroke-width:17px;}.cls-13,.cls-14,.cls-15,.cls-16,.cls-19,.cls-20,.cls-22,.cls-3,.cls-6,.cls-9{fill:none;}.cls-23,.cls-4{fill:#27aae1;}.cls-5{fill:#9adaef;}.cls-6{stroke-width:21px;}.cls-11,.cls-12,.cls-7,.cls-8{fill:#4374ba;}.cls-14,.cls-8{stroke-width:10px;}.cls-10,.cls-17{fill:#231f20;}.cls-10,.cls-18{stroke-width:5px;}.cls-11{stroke-width:9px;}.cls-12,.cls-16{stroke-width:7px;}.cls-13{stroke-width:26px;}.cls-14,.cls-16,.cls-20,.cls-22{stroke:#feda41;}.cls-15{stroke-width:12px;}.cls-18,.cls-21{fill:#fdda42;}.cls-19,.cls-20{stroke-width:3px;}.cls-22{stroke-width:2px;}</style></defs><path class="cls-1" d="M237.9,279.85l-20.18,41L205.6,345.48l-28.78,58.45-12.93,26.29c-.21,6.95-.63,8.44-1,8.46-1.13.07-3.59-14.52-3.51-29.36,0-2,.09-7.08.76-13.57a164.78,164.78,0,0,1,4.07-22.52c.55-2.28,1-4.09,1.72-6.59A146.49,146.49,0,0,1,182.38,331a147.07,147.07,0,0,1,13.19-17.65q1.76-2,3.59-4A147.2,147.2,0,0,1,237.9,279.85Z" transform="translate(-43.25 -132.93)"/><path class="cls-2" d="M379.24,410.34q-36.87.26-73.75.44-36.37.18-72.73.29l74.13-154.15Z" transform="translate(-43.25 -132.93)"/><path class="cls-3" d="M423.94,498a146.94,146.94,0,0,1-235.08,0L306.4,262.93Z" transform="translate(-43.25 -132.93)"/><path class="cls-1" d="M369.19,277a150.41,150.41,0,0,1,47.2,35.46c4.55,5.12,23.34,26.95,30.3,53.64a137.13,137.13,0,0,1,3.6,19.59c1,9.09.51,13.79,1.59,25,.11,1.13.39,4,.49,7.91a84.86,84.86,0,0,1-.2,9,77.38,77.38,0,0,1-1.48,10.1" transform="translate(-43.25 -132.93)"/><path class="cls-4" d="M452.83,432.22A146.18,146.18,0,0,1,426,493.05L308.45,258,190.91,493.05a146,146,0,0,1-27.25-63.16l2.28-4.63L178.87,399l42.18-82.42q14.37-27,28.68-54.44,30.27-58,59-115.17Q340,209.49,371.24,272Z" transform="translate(-43.25 -132.93)"/><path class="cls-5" d="M203.5,369c41.5-80.31,76.77-148,103.6-199.36L442,438.7c-2-2.75-4.9-6.86-8.27-11.95-4.3-6.49-7.22-11.44-8.71-13.82-10.36-16.59-15.56-24.87-17.75-28.48-42.18-69.26-76.52-127-101.07-168.6-108.53,182.6-135.84,220.5-135.84,220.5S179.83,414.76,203.5,369Z" transform="translate(-43.25 -132.93)"/><path class="cls-3" d="M450.78,437.18A146.18,146.18,0,0,1,423.94,498L306.4,262.93,188.86,498a146,146,0,0,1-27.25-63.16l2.28-4.63,12.93-26.29L219,321.51q14.37-27,28.68-54.44,30.27-58,59-115.17Q337.92,214.45,369.19,277Z" transform="translate(-43.25 -132.93)"/><line class="cls-6" x1="145.61" y1="365.08" x2="130.92" y2="394.46"/><line class="cls-6" x1="262.63" y1="101.83" x2="263.67" y2="134.66"/><line class="cls-6" x1="392.15" y1="388" x2="380.69" y2="365.08"/><line class="cls-3" x1="116.23" y1="276.92" x2="410.07" y2="276.92"/><line class="cls-3" x1="263.15" y1="276.92" x2="263.15" y2="130"/><path class="cls-7" d="M259.8,239.09l-21.9,40.76a147.2,147.2,0,0,0-38.74,29.58q-1.83,1.95-3.59,4A147.07,147.07,0,0,0,182.38,331a146.28,146.28,0,0,0-22.78,73A38.29,38.29,0,0,1,137,354.31a52.94,52.94,0,1,1,39.52-95.8,49,49,0,0,1,46.79-34.45,58.53,58.53,0,0,1,14.92,2.31A54.33,54.33,0,0,1,259.8,239.09Z" transform="translate(-43.25 -132.93)"/><path class="cls-7" d="M348,227.68l28.62,50.71c4.48,3.23,23,16.66,34.53,28.49,3,3.08,5.65,6.08,5.65,6.08a145.62,145.62,0,0,1,31.7,59.75,149.27,149.27,0,0,1,4.62,30.15,49.35,49.35,0,0,0,18.23-17.34,50.6,50.6,0,0,0,7.07-22.16,58.47,58.47,0,0,0-3.52-26.5c2.49-.91,25.58-9.77,32.06-33.49,6.26-22.91-6.4-47.12-24.58-56.21-13.33-6.67-27.49-4.13-33.18-3.11a64.05,64.05,0,0,0-25,10.34c-.81-2.28-11.1-30.14-34.67-35-8.43-1.74-18.56.28-21.53.88A69.36,69.36,0,0,0,348,227.68Z" transform="translate(-43.25 -132.93)"/><path class="cls-4" d="M476.71,257.41c13.23,7,21.19,20.82,20.21,35-1.17,16.85-14.8,31.3-32.85,33.81,1.19-.55,22.22-10.66,24.93-33.81C491.32,272.6,478.4,259.12,476.71,257.41Z" transform="translate(-43.25 -132.93)"/><path class="cls-4" d="M363,233.12a32.37,32.37,0,0,1,19.47-3.56c16.78,2.37,24.6,17.89,25.31,19.37A45.68,45.68,0,0,0,363,233.12Z" transform="translate(-43.25 -132.93)"/><path class="cls-4" d="M201.44,243.27c2-1.71,11.53-9.6,25-8.39A32.58,32.58,0,0,1,242,240.59a52.77,52.77,0,0,0-40.55,2.68Z" transform="translate(-43.25 -132.93)"/><path class="cls-4" d="M130.41,339.85c-15.29-7-25.2-21.92-25.17-37.85,0-19.15,14.42-36.57,34.74-40.78-16.26,7.21-27.11,22.73-27.91,40C111,324.5,128.77,338.59,130.41,339.85Z" transform="translate(-43.25 -132.93)"/><circle class="cls-8" cx="46.94" cy="253.48" r="22.15"/><path class="cls-9" d="M443.49,381.51q-.27,22.5-2.15,22.64c-.47,0-1-1-1.66-3.13" transform="translate(-43.25 -132.93)"/><path class="cls-10" d="M456.2,392.76a101.36,101.36,0,0,1,.39,44" transform="translate(-43.25 -132.93)"/><circle class="cls-11" cx="24.79" cy="275.63" r="20.29"/><path class="cls-4" d="M59.86,420.18a13.63,13.63,0,0,1,9.3-25.06,18.27,18.27,0,0,0-9.3,8.21C55.61,411.31,59.44,419.35,59.86,420.18Z" transform="translate(-43.25 -132.93)"/><path class="cls-4" d="M95.86,371.41A16.55,16.55,0,0,1,106,388.29,16.36,16.36,0,0,1,95.56,401.4a23.5,23.5,0,0,0,5.37-11.76C102.34,380,96.94,372.79,95.86,371.41Z" transform="translate(-43.25 -132.93)"/><circle class="cls-12" cx="18.51" cy="202.24" r="13.66"/><path class="cls-4" d="M56.39,342.78a9.29,9.29,0,0,1,5.37-17.08A12.38,12.38,0,0,0,56,331.27C53.27,336.78,56.09,342.21,56.39,342.78Z" transform="translate(-43.25 -132.93)"/><circle class="cls-8" cx="402.29" cy="56.69" r="28.98"/><path class="cls-4" d="M466.27,194.81c-3.27,9.19-12,15.12-21.14,14.65a21.43,21.43,0,0,1-18-12.41,30.89,30.89,0,0,0,15.82,6C455.69,204,464.57,196.34,466.27,194.81Z" transform="translate(-43.25 -132.93)"/><circle class="cls-12" cx="465.37" cy="288.02" r="13.66"/><path class="cls-4" d="M504.83,412.44a9.29,9.29,0,0,1,11.92,13.35,12.32,12.32,0,0,0-1.83-7.79C511.58,412.83,505.47,412.47,504.83,412.44Z" transform="translate(-43.25 -132.93)"/><circle class="cls-12" cx="380.69" cy="39.12" r="13.66"/><path class="cls-4" d="M420.15,163.54a9.29,9.29,0,0,1,11.92,13.35,12.32,12.32,0,0,0-1.83-7.79C426.9,163.93,420.79,163.56,420.15,163.54Z" transform="translate(-43.25 -132.93)"/><line class="cls-13" x1="262.95" y1="94.56" x2="263.67" y2="279.59"/><line class="cls-13" x1="107.28" y1="277.14" x2="418.62" y2="277.14"/><line class="cls-13" x1="394.25" y1="392.21" x2="334.09" y2="271.89"/><line class="cls-13" x1="133.75" y1="388.8" x2="192.21" y2="271.89"/><line class="cls-14" x1="263.15" y1="101.24" x2="263.15" y2="276.92"/><line class="cls-14" x1="336.61" y1="276.93" x2="394.25" y2="392.21"/><line class="cls-14" x1="189.69" y1="276.93" x2="133.75" y2="388.8"/><line class="cls-14" x1="111.36" y1="276.94" x2="419.02" y2="277.12"/><circle class="cls-15" cx="263.31" cy="95.21" r="9.76"/><circle class="cls-16" cx="263.32" cy="95.38" r="6.6"/><circle class="cls-10" cx="263.32" cy="95.38" r="4.68"/><circle class="cls-15" cx="107.28" cy="275.42" r="9.76"/><circle class="cls-16" cx="107.29" cy="275.59" r="6.6"/><circle class="cls-10" cx="107.29" cy="275.59" r="4.68"/><circle class="cls-15" cx="415.56" cy="276.92" r="9.76"/><circle class="cls-16" cx="415.56" cy="277.1" r="6.6"/><circle class="cls-10" cx="415.56" cy="277.1" r="4.68"/><circle class="cls-15" cx="394.35" cy="392.41" r="9.76"/><circle class="cls-16" cx="394.36" cy="392.59" r="6.6"/><circle class="cls-10" cx="394.36" cy="392.59" r="4.68"/><circle class="cls-15" cx="131.86" cy="392.59" r="9.76"/><circle class="cls-16" cx="131.86" cy="392.77" r="6.6"/><circle class="cls-10" cx="131.86" cy="392.77" r="4.68"/><path class="cls-2" d="M249.72,431.07,217,496.74a123.27,123.27,0,0,0,37.65,28.41,120.76,120.76,0,0,0,50.7,12.3c7,.07,36.5-3,64.51-18.83,13.29-7.49,25.18-21.46,25.18-21.46l-33.71-66.51Z" transform="translate(-43.25 -132.93)"/><path class="cls-1" d="M308.74,458.17" transform="translate(-43.25 -132.93)"/><path class="cls-1" d="M319,458.51" transform="translate(-43.25 -132.93)"/><path class="cls-17" d="M250.15,522.22v-11h10.08v15.89L254,525.3C251.54,525.3,250.15,524.69,250.15,522.22Z" transform="translate(-43.25 -132.93)"/><path class="cls-17" d="M267.14,529.71V511.25h10.09V533h-1.89C270.81,533,267.14,534.24,267.14,529.71Z" transform="translate(-43.25 -132.93)"/><path class="cls-17" d="M284.14,534.63V511.25h10.09v25.66h-7.8A2.28,2.28,0,0,1,284.14,534.63Z" transform="translate(-43.25 -132.93)"/><path class="cls-17" d="M301.14,538.08V511.25h10.08v26.83Z" transform="translate(-43.25 -132.93)"/><path class="cls-17" d="M318.13,536.28v-25h10.09v22.51a2.52,2.52,0,0,1-2.52,2.52Z" transform="translate(-43.25 -132.93)"/><path class="cls-17" d="M335.13,532.71V511.25h10.09v17.13a4.33,4.33,0,0,1-4.33,4.33Z" transform="translate(-43.25 -132.93)"/><path class="cls-17" d="M352.12,526.33V511.25h10.09v10.54c0,3.26-2.64,4.54-5.9,4.54Z" transform="translate(-43.25 -132.93)"/><path class="cls-17" d="M229.47,473.57H235v10.08H224.76l1.78-4.81C226.54,476.24,226.87,473.57,229.47,473.57Z" transform="translate(-43.25 -132.93)"/><path class="cls-17" d="M220.35,490.56H235v10.09L220,501c-1.52,0-1.56-1.57-1.56-3.09v-4.59C218.48,491.79,218.83,490.56,220.35,490.56Z" transform="translate(-43.25 -132.93)"/><path class="cls-17" d="M229,507.56H235v6.76l-.72-1.25c-3.34,0-4.61-1.59-4.61-4.93Z" transform="translate(-43.25 -132.93)"/><path class="cls-17" d="M375.57,473.63l6-.09c3.16,0,3.23,2.24,3.23,5.41l2.39,4.86-11.62-.09Z" transform="translate(-43.25 -132.93)"/><path class="cls-17" d="M375.57,490.63l14.78-.11a2.81,2.81,0,0,1,2.83,2.81v7.25l-17.61.14Z" transform="translate(-43.25 -132.93)"/><path class="cls-17" d="M375.57,507.63l9.14-.12c1.42,0-.72,1.14-.72,2.55l-3.23,2.16c0,1.41-1,1.45-2.41,1.46l-2.78,1.71Z" transform="translate(-43.25 -132.93)"/><path class="cls-17" d="M249.33,454.62V431.28h10.09v23.34Z" transform="translate(-43.25 -132.93)"/><path class="cls-17" d="M266.33,454.62V431.28h10.09v23.34Z" transform="translate(-43.25 -132.93)"/><path class="cls-17" d="M283.33,454.62V431.28h10.08v23.34Z" transform="translate(-43.25 -132.93)"/><path class="cls-17" d="M300.32,454.62V431.28h10.09v23.34Z" transform="translate(-43.25 -132.93)"/><path class="cls-17" d="M317.32,454.62V431.28h10.09v23.34Z" transform="translate(-43.25 -132.93)"/><path class="cls-17" d="M334.32,454.62V431.28H344.4v23.34Z" transform="translate(-43.25 -132.93)"/><path class="cls-17" d="M351.31,454.62V431.28H361.4v23.34Z" transform="translate(-43.25 -132.93)"/><path class="cls-18" d="M282.84,483.35c0,13-9.92,22-23.64,22H241.56V461.58H259.2C272.92,461.58,282.84,470.53,282.84,483.35Zm-11.08,0c0-6.77-5.47-12-12.56-12h-6.76v24.21h6.76A12.18,12.18,0,0,0,271.76,483.35Z" transform="translate(-43.25 -132.93)"/><path class="cls-18" d="M319.28,479v9.27H299.9v7.6h22.21v9.47H289V461.58h33.1v9.47H299.9v8Z" transform="translate(-43.25 -132.93)"/><path class="cls-18" d="M360.16,505.37l-21-24v24H328.29V461.58h8.31l21.12,24.66V461.58H368.6v43.79Z" transform="translate(-43.25 -132.93)"/><path class="cls-19" d="M249.68,431.69,217,497.37a123.14,123.14,0,0,0,37.65,28.41,120.92,120.92,0,0,0,50.7,12.3c7.05.07,36.5-3,64.51-18.83,13.29-7.49,25.18-21.46,25.18-21.46l-33.71-66.51Z" transform="translate(-43.25 -132.93)"/><line class="cls-20" x1="262.77" y1="382.89" x2="262.77" y2="421.81"/><circle class="cls-21" cx="262.77" cy="421.81" r="3.27"/><line class="cls-20" x1="245.94" y1="382.89" x2="245.94" y2="420.67"/><circle class="cls-21" cx="245.94" cy="420.67" r="3.18"/><line class="cls-20" x1="279.93" y1="382.89" x2="279.93" y2="420.67"/><circle class="cls-21" cx="279.93" cy="420.67" r="3.18"/><line class="cls-20" x1="296.93" y1="382.89" x2="296.93" y2="418.8"/><circle class="cls-21" cx="296.93" cy="418.8" r="3.02"/><line class="cls-20" x1="228.94" y1="382.31" x2="228.94" y2="418.22"/><circle class="cls-21" cx="228.94" cy="418.22" r="3.02"/><line class="cls-20" x1="313.92" y1="382.25" x2="313.92" y2="414.33"/><circle class="cls-21" cx="313.92" cy="414.33" r="2.7"/><line class="cls-20" x1="211.95" y1="382.4" x2="211.95" y2="414.47"/><circle class="cls-21" cx="211.95" cy="414.47" r="2.7"/><line class="cls-22" x1="262.13" y1="312.68" x2="262.13" y2="282.08"/><line class="cls-22" x1="245.13" y1="312.68" x2="245.13" y2="282.08"/><line class="cls-22" x1="279.13" y1="312.68" x2="279.13" y2="282.08"/><line class="cls-22" x1="296.13" y1="312.68" x2="296.13" y2="282.08"/><line class="cls-22" x1="228.13" y1="312.68" x2="228.13" y2="281.56"/><line class="cls-22" x1="313.13" y1="312.68" x2="313.13" y2="281.5"/><line class="cls-22" x1="211.13" y1="312.68" x2="211.13" y2="281.63"/><path class="cls-23" d="M169.77,434.24" transform="translate(-43.25 -132.93)"/><path class="cls-5" d="M212.28,331.9" transform="translate(-43.25 -132.93)"/><path class="cls-7" d="M539,433.71" transform="translate(-43.25 -132.93)"/><circle class="cls-8" cx="498.23" cy="357.82" r="22.15"/><circle class="cls-11" cx="471.54" cy="341.41" r="20.29"/><path class="cls-4" d="M501.58,469.08a13.63,13.63,0,0,1,26.54,3.24A18.21,18.21,0,0,0,518,465.17C509.23,462.89,502.3,468.48,501.58,469.08Z" transform="translate(-43.25 -132.93)"/><path class="cls-4" d="M557.37,492.78a16.55,16.55,0,0,1-14.08,13.74,16.34,16.34,0,0,1-15.15-7.07,23.57,23.57,0,0,0,12.68,2.5C550.57,501.07,556.28,494.16,557.37,492.78Z" transform="translate(-43.25 -132.93)"/></svg>