<svg height="512pt" viewBox="0 0 512 512" width="512pt" xmlns="http://www.w3.org/2000/svg"><path d="m98.710938 71.109375c1.667968 0 3.351562-.554687 4.742187-1.699219 42.867187-35.085937 97.042969-54.410156 152.546875-54.410156 47.199219 0 92.90625 13.640625 132.175781 39.445312 3.460938 2.273438 8.109375 1.3125 10.382813-2.148437 2.277344-3.460937 1.3125-8.113281-2.148438-10.386719-41.722656-27.417968-90.273437-41.910156-140.410156-41.910156-58.957031 0-116.507812 20.527344-162.046875 57.804688-3.203125 2.625-3.675781 7.347656-1.050781 10.554687 1.480468 1.8125 3.636718 2.75 5.808594 2.75zm0 0"/><path d="m10.507812 295.503906c4.109376-.527344 7.007813-4.289062 6.480469-8.394531-1.320312-10.242187-1.988281-20.707031-1.988281-31.109375 0-59.847656 22.085938-117.230469 62.191406-161.582031 2.777344-3.074219 2.539063-7.816407-.535156-10.59375-3.070312-2.777344-7.816406-2.539063-10.59375.53125-42.601562 47.113281-66.0625 108.074219-66.0625 171.644531 0 11.039062.710938 22.152344 2.109375 33.023438.488281 3.785156 3.714844 6.542968 7.429687 6.542968.320313 0 .644532-.019531.96875-.0625zm0 0"/><path d="m23.101562 318.199219c-1.066406-4-5.179687-6.382813-9.175781-5.316407-4.003906 1.066407-6.386719 5.175782-5.320312 9.179688 4.015625 15.066406 9.453125 29.847656 16.167969 43.9375 1.285156 2.699219 3.972656 4.273438 6.777343 4.273438 1.078125 0 2.179688-.234376 3.21875-.730469 3.738281-1.78125 5.328125-6.257813 3.542969-9.996094-6.316406-13.257813-11.433594-27.167969-15.210938-41.347656zm0 0"/><path d="m287.105469 495.011719c-10.242188 1.320312-20.707031 1.988281-31.105469 1.988281-55.496094 0-109.664062-19.320312-152.527344-54.398438-3.203125-2.621093-7.929687-2.152343-10.554687 1.054688-2.621094 3.207031-2.148438 7.933594 1.054687 10.554688 45.535156 37.265624 103.078125 57.789062 162.027344 57.789062 11.039062 0 22.148438-.710938 33.019531-2.109375 4.109375-.53125 7.011719-4.289063 6.480469-8.398437-.527344-4.105469-4.285156-7.011719-8.394531-6.480469zm0 0"/><path d="m510.816406 231.238281c-.394531-4.125-4.058594-7.148437-8.183594-6.75-4.121093.394531-7.144531 4.058594-6.746093 8.183594.738281 7.699219 1.113281 15.546875 1.113281 23.328125 0 109.085938-73.523438 204.855469-178.796875 232.898438-4.003906 1.066406-6.382813 5.175781-5.316406 9.175781.894531 3.355469 3.925781 5.574219 7.242187 5.574219.640625 0 1.289063-.085938 1.9375-.253907 111.828125-29.792969 189.933594-131.523437 189.933594-247.394531 0-8.257812-.398438-16.589844-1.183594-24.761719zm0 0"/><path d="m489.226562 195.050781c.878907 3.375 3.921876 5.609375 7.253907 5.609375.625 0 1.261719-.078125 1.898437-.242187 4.007813-1.046875 6.410156-5.140625 5.363282-9.148438-1.554688-5.972656-3.351563-11.960937-5.339844-17.800781-1.335938-3.921875-5.597656-6.019531-9.515625-4.683594-3.921875 1.332032-6.019531 5.59375-4.683594 9.515625 1.871094 5.496094 3.5625 11.132813 5.023437 16.75zm0 0"/><path d="m96.984375 402.921875c3.132813-2.707031 3.480469-7.445313.773437-10.578125-6.800781-7.878906-12.949218-16.199219-18.4375-24.878906 19.597657-4.878906 34.128907-10.878906 46.046876-15.808594 18.894531-7.8125 30.296874-12.53125 46.765624-7.042969 14.304688 4.769531 21.410157 15.273438 28.933594 26.394531 9.992188 14.769532 21.285156 31.464844 49.746094 31.464844.671875 0 1.359375-.007812 2.054688-.027344 21.488281-.589843 35.65625-12.382812 48.15625-22.785156 11.050781-9.199218 21.492187-17.890625 36.445312-19.507812 7.136719-.769532 16.175781 1.210937 26.875 5.890625 3.796875 1.660156 8.214844-.070313 9.875-3.867188 1.660156-3.792969-.070312-8.214843-3.867188-9.875-13.121093-5.742187-24.730468-8.117187-34.496093-7.0625-19.457031 2.105469-32.722657 13.148438-44.429688 22.894531-12.167969 10.125-22.671875 18.871094-38.972656 19.316407-21.726563.597656-29.34375-10.628907-38.960937-24.84375-8.195313-12.113281-17.484376-25.84375-36.617188-32.222657-21.769531-7.253906-37.425781-.78125-57.242188 7.414063-12.285156 5.082031-27.46875 11.347656-48.179687 16.128906-14.136719-26.585937-22.367187-55.996093-24.03125-86.394531 10.597656-7.40625 47.027344-29.660156 90.707031-20.460938 4.050782.855469 8.03125-1.738281 8.882813-5.792968.855469-4.050782-1.738281-8.03125-5.792969-8.882813-41.394531-8.71875-76.328125 6.890625-94.023438 17.417969.007813-.359375.011719-.714844.023438-1.078125.421875-12.375 1.941406-24.578125 4.476562-36.492187 24.621094 1.460937 43.800782-8.453126 60.796876-17.238282 26.675781-13.792968 49.710937-25.703125 91.136718 3.03125 29.742188 20.632813 57.105469 34.507813 85.324219 34.507813 16.097656 0 32.476563-4.515625 49.730469-14.867188 22.269531-13.363281 45.410156-22.507812 65.160156-25.75 23.578125-3.875 41.957031.414063 54.671875 12.707031 4.796875 18.953126 6.949219 38.667969 6.265625 58.632813-.421875 12.316406-1.929688 24.457031-4.441406 36.316406-15.238282-19.527343-51.164063-57.695312-97.546875-55.078125-23.445313 1.324219-44.074219 10.320313-64.023438 19.023438-34.160156 14.898437-63.664062 27.769531-99.433593-1.941406-7.488282-6.21875-15.296876-11.601563-23.207032-16-3.621094-2.011719-8.1875-.710938-10.199218 2.910156-2.011719 3.621094-.710938 8.1875 2.910156 10.199218 7.101562 3.949219 14.136718 8.804688 20.914062 14.433594 42.878906 35.609375 79.550782 19.617188 115.011719 4.148438 18.738281-8.171875 38.113281-16.625 58.875-17.796875 50.320313-2.847657 89.074219 54.777343 91.785156 58.914062-7.460937 23.929688-19.207031 46.367188-34.800781 66.277344-4.214844-3.496094-10.976562-8.867187-19.222656-14.570313-3.40625-2.359374-8.078125-1.507812-10.433594 1.898438-2.359375 3.40625-1.507812 8.078125 1.898438 10.4375 7.707031 5.328125 14.113281 10.417969 18.09375 13.710938-2.339844 2.582031-4.742188 5.117187-7.21875 7.59375-37.550782 37.546874-87.4375 59.226562-140.476563 61.039062-52.769531 1.804688-103.769531-16.144531-143.609375-50.539062-3.132812-2.707032-7.871094-2.359376-10.578125.773437-2.707031 3.136719-2.359375 7.871094.777344 10.578125 40.746093 35.179688 92.382812 54.3125 146.160156 54.3125 2.582031 0 5.171875-.046875 7.761719-.132812 56.851562-1.945313 110.324218-25.179688 150.570312-65.425782s63.480469-93.71875 65.425782-150.570312c1.933593-56.554688-17.308594-111.21875-54.179688-153.921875-2.707031-3.132813-7.441406-3.480469-10.578125-.773438-3.132813 2.707031-3.480469 7.441407-.773437 10.578125 16.054687 18.59375 28.523437 39.625 37.074218 62.128906-42.84375-19.511718-101.410156 11.660157-120.347656 23.023438-35.667969 21.402344-67.863281 16.222656-118.789062-19.101562-48.839844-33.882813-78.191407-18.707032-106.574219-4.03125-15.933594 8.238281-31.058594 16.050781-50.167969 15.699218 9.722656-33.390625 27.71875-64.011718 52.824219-89.117187 12.722656-12.722657 26.859375-23.613281 42.054687-32.535157 12.34375 4.371094 20.003906 15.5625 27.402344 26.417969 8.71875 12.789063 18.878906 27.699219 37.488281 27.699219 8.796875 0 19.484375-3.335938 32.796875-11.808594 28.488282-18.128906 50.769532-29.375 78.148438-8.84375 10.304687 7.730469 21.054687 10.535156 31.953125 8.339844 14.992187-3.023438 26.015625-15 31.417969-22.152344.945312.789063 1.886718 1.574219 2.820312 2.378906 3.136719 2.707032 7.871094 2.359376 10.578125-.773437 2.707031-3.136719 2.359375-7.871094-.773437-10.578125-42.707032-36.871094-97.371094-56.109375-153.925782-54.175781-56.847656 1.941406-110.320312 25.175781-150.566406 65.421875s-63.480469 93.71875-65.425781 150.570312c-1.933594 56.554688 17.308593 111.21875 54.175781 153.921875 1.484375 1.71875 3.578125 2.597657 5.683594 2.597657 1.730468 0 3.476562-.597657 4.894531-1.820313zm151.75-355.699219c46.492187-1.589844 91.597656 12.15625 128.917969 38.964844-4.007813 5.328125-12.257813 14.574219-22.511719 16.640625-6.621094 1.332031-13.15625-.511719-19.988281-5.636719-37.792969-28.339844-70.976563-7.226562-95.203125 8.191406-20.339844 12.941407-28.636719 9.378907-31.363281 8.207032-6.945313-2.984375-12.546876-11.199219-18.476563-19.894532-6.339844-9.304687-13.3125-19.5-23.667969-26.5 25.511719-12.105468 53.433594-18.988281 82.292969-19.972656zm0 0"/><path d="m249.144531 143.65625c-14.296875 10.519531-12.996093 22.398438-10.949219 28.542969 3.144532 9.425781 11.09375 17.515625 21.273438 21.636719 4.960938 2.011718 10.257812 3.007812 15.714844 3.007812 7.964844 0 16.265625-2.125 24.355468-6.335938 12.277344-6.382812 33.039063-19.457031 34.1875-35.332031.375-5.15625-1.152343-12.726562-10.550781-19.492187-14.925781-10.746094-54.359375-6.496094-74.03125 7.972656zm69.621094 10.4375c-.417969 5.820312-11.171875 15.320312-26.144531 23.105469-12.398438 6.449219-21.8125 5.046875-27.523438 2.734375-6.070312-2.457032-10.921875-7.238282-12.667968-12.480469-.558594-1.664063-2.035157-6.09375 5.605468-11.714844 10.125-7.449219 27.375-10.976562 40.472656-10.976562 7.152344 0 13.070313 1.054687 15.902344 3.09375 4.570313 3.289062 4.410156 5.507812 4.355469 6.238281zm0 0"/></svg>